<svg width="630" height="736" viewBox="0 0 630 736" fill="none" xmlns="http://www.w3.org/2000/svg">
<rect x="0.15" y="0.15" width="629.7" height="735.062" rx="23.85" fill="white" stroke="#B9B9B9" stroke-width="0.3"/>
<rect opacity="0.9" x="106" y="577" width="418" height="50" rx="25" fill="#05976A"/>
<path d="M293.192 600.168C292.968 599.757 292.66 599.445 292.268 599.23C291.876 599.015 291.419 598.908 290.896 598.908C290.318 598.908 289.804 599.039 289.356 599.3C288.908 599.561 288.558 599.935 288.306 600.42C288.054 600.905 287.928 601.465 287.928 602.1C287.928 602.753 288.054 603.323 288.306 603.808C288.568 604.293 288.927 604.667 289.384 604.928C289.842 605.189 290.374 605.32 290.98 605.32C291.727 605.32 292.338 605.124 292.814 604.732C293.29 604.331 293.603 603.775 293.752 603.066H290.392V601.568H295.684V603.276C295.554 603.957 295.274 604.587 294.844 605.166C294.415 605.745 293.86 606.211 293.178 606.566C292.506 606.911 291.75 607.084 290.91 607.084C289.968 607.084 289.114 606.874 288.348 606.454C287.592 606.025 286.995 605.432 286.556 604.676C286.127 603.92 285.912 603.061 285.912 602.1C285.912 601.139 286.127 600.28 286.556 599.524C286.995 598.759 287.592 598.166 288.348 597.746C289.114 597.317 289.963 597.102 290.896 597.102C291.998 597.102 292.954 597.373 293.766 597.914C294.578 598.446 295.138 599.197 295.446 600.168H293.192ZM300.507 607.126C299.76 607.126 299.088 606.963 298.491 606.636C297.894 606.3 297.422 605.829 297.077 605.222C296.741 604.615 296.573 603.915 296.573 603.122C296.573 602.329 296.746 601.629 297.091 601.022C297.446 600.415 297.926 599.949 298.533 599.622C299.14 599.286 299.816 599.118 300.563 599.118C301.31 599.118 301.986 599.286 302.593 599.622C303.2 599.949 303.676 600.415 304.021 601.022C304.376 601.629 304.553 602.329 304.553 603.122C304.553 603.915 304.371 604.615 304.007 605.222C303.652 605.829 303.167 606.3 302.551 606.636C301.944 606.963 301.263 607.126 300.507 607.126ZM300.507 605.418C300.862 605.418 301.193 605.334 301.501 605.166C301.818 604.989 302.07 604.727 302.257 604.382C302.444 604.037 302.537 603.617 302.537 603.122C302.537 602.385 302.341 601.82 301.949 601.428C301.566 601.027 301.095 600.826 300.535 600.826C299.975 600.826 299.504 601.027 299.121 601.428C298.748 601.82 298.561 602.385 298.561 603.122C298.561 603.859 298.743 604.429 299.107 604.83C299.48 605.222 299.947 605.418 300.507 605.418ZM311.144 600.378C311.396 600.005 311.741 599.701 312.18 599.468C312.628 599.235 313.136 599.118 313.706 599.118C314.368 599.118 314.966 599.281 315.498 599.608C316.039 599.935 316.464 600.401 316.772 601.008C317.089 601.605 317.248 602.301 317.248 603.094C317.248 603.887 317.089 604.592 316.772 605.208C316.464 605.815 316.039 606.286 315.498 606.622C314.966 606.958 314.368 607.126 313.706 607.126C313.127 607.126 312.618 607.014 312.18 606.79C311.75 606.557 311.405 606.258 311.144 605.894V607H309.184V596.64H311.144V600.378ZM315.246 603.094C315.246 602.627 315.148 602.226 314.952 601.89C314.765 601.545 314.513 601.283 314.196 601.106C313.888 600.929 313.552 600.84 313.188 600.84C312.833 600.84 312.497 600.933 312.18 601.12C311.872 601.297 311.62 601.559 311.424 601.904C311.237 602.249 311.144 602.655 311.144 603.122C311.144 603.589 311.237 603.995 311.424 604.34C311.62 604.685 311.872 604.951 312.18 605.138C312.497 605.315 312.833 605.404 313.188 605.404C313.552 605.404 313.888 605.311 314.196 605.124C314.513 604.937 314.765 604.671 314.952 604.326C315.148 603.981 315.246 603.57 315.246 603.094ZM318.097 603.094C318.097 602.31 318.251 601.615 318.559 601.008C318.876 600.401 319.301 599.935 319.833 599.608C320.374 599.281 320.976 599.118 321.639 599.118C322.217 599.118 322.721 599.235 323.151 599.468C323.589 599.701 323.939 599.995 324.201 600.35V599.244H326.175V607H324.201V605.866C323.949 606.23 323.599 606.533 323.151 606.776C322.712 607.009 322.203 607.126 321.625 607.126C320.971 607.126 320.374 606.958 319.833 606.622C319.301 606.286 318.876 605.815 318.559 605.208C318.251 604.592 318.097 603.887 318.097 603.094ZM324.201 603.122C324.201 602.646 324.107 602.24 323.921 601.904C323.734 601.559 323.482 601.297 323.165 601.12C322.847 600.933 322.507 600.84 322.143 600.84C321.779 600.84 321.443 600.929 321.135 601.106C320.827 601.283 320.575 601.545 320.379 601.89C320.192 602.226 320.099 602.627 320.099 603.094C320.099 603.561 320.192 603.971 320.379 604.326C320.575 604.671 320.827 604.937 321.135 605.124C321.452 605.311 321.788 605.404 322.143 605.404C322.507 605.404 322.847 605.315 323.165 605.138C323.482 604.951 323.734 604.69 323.921 604.354C324.107 604.009 324.201 603.598 324.201 603.122ZM327.513 603.122C327.513 602.319 327.677 601.619 328.003 601.022C328.33 600.415 328.783 599.949 329.361 599.622C329.94 599.286 330.603 599.118 331.349 599.118C332.311 599.118 333.104 599.361 333.729 599.846C334.364 600.322 334.789 600.994 335.003 601.862H332.889C332.777 601.526 332.586 601.265 332.315 601.078C332.054 600.882 331.727 600.784 331.335 600.784C330.775 600.784 330.332 600.989 330.005 601.4C329.679 601.801 329.515 602.375 329.515 603.122C329.515 603.859 329.679 604.433 330.005 604.844C330.332 605.245 330.775 605.446 331.335 605.446C332.129 605.446 332.647 605.091 332.889 604.382H335.003C334.789 605.222 334.364 605.889 333.729 606.384C333.095 606.879 332.301 607.126 331.349 607.126C330.603 607.126 329.94 606.963 329.361 606.636C328.783 606.3 328.33 605.833 328.003 605.236C327.677 604.629 327.513 603.925 327.513 603.122ZM340.96 607L338.328 603.696V607H336.368V596.64H338.328V602.534L340.932 599.244H343.48L340.064 603.136L343.508 607H340.96Z" fill="white"/>
<path d="M132.852 525.892H139.292V529H128.932V509.456H132.852V525.892ZM148.557 529.252C147.064 529.252 145.72 528.925 144.525 528.272C143.331 527.6 142.388 526.657 141.697 525.444C141.025 524.231 140.689 522.831 140.689 521.244C140.689 519.657 141.035 518.257 141.725 517.044C142.435 515.831 143.396 514.897 144.609 514.244C145.823 513.572 147.176 513.236 148.669 513.236C150.163 513.236 151.516 513.572 152.729 514.244C153.943 514.897 154.895 515.831 155.585 517.044C156.295 518.257 156.649 519.657 156.649 521.244C156.649 522.831 156.285 524.231 155.557 525.444C154.848 526.657 153.877 527.6 152.645 528.272C151.432 528.925 150.069 529.252 148.557 529.252ZM148.557 525.836C149.267 525.836 149.929 525.668 150.545 525.332C151.18 524.977 151.684 524.455 152.057 523.764C152.431 523.073 152.617 522.233 152.617 521.244C152.617 519.769 152.225 518.64 151.441 517.856C150.676 517.053 149.733 516.652 148.613 516.652C147.493 516.652 146.551 517.053 145.785 517.856C145.039 518.64 144.665 519.769 144.665 521.244C144.665 522.719 145.029 523.857 145.757 524.66C146.504 525.444 147.437 525.836 148.557 525.836ZM166.298 529.252C164.805 529.252 163.461 528.925 162.266 528.272C161.072 527.6 160.129 526.657 159.438 525.444C158.766 524.231 158.43 522.831 158.43 521.244C158.43 519.657 158.776 518.257 159.466 517.044C160.176 515.831 161.137 514.897 162.35 514.244C163.564 513.572 164.917 513.236 166.41 513.236C167.904 513.236 169.257 513.572 170.47 514.244C171.684 514.897 172.636 515.831 173.326 517.044C174.036 518.257 174.39 519.657 174.39 521.244C174.39 522.831 174.026 524.231 173.298 525.444C172.589 526.657 171.618 527.6 170.386 528.272C169.173 528.925 167.81 529.252 166.298 529.252ZM166.298 525.836C167.008 525.836 167.67 525.668 168.286 525.332C168.921 524.977 169.425 524.455 169.798 523.764C170.172 523.073 170.358 522.233 170.358 521.244C170.358 519.769 169.966 518.64 169.182 517.856C168.417 517.053 167.474 516.652 166.354 516.652C165.234 516.652 164.292 517.053 163.526 517.856C162.78 518.64 162.406 519.769 162.406 521.244C162.406 522.719 162.77 523.857 163.498 524.66C164.245 525.444 165.178 525.836 166.298 525.836ZM186.336 529L181.072 522.392V529H177.152V508.28H181.072V520.068L186.28 513.488H191.376L184.544 521.272L191.432 529H186.336ZM199.325 529.252C198.056 529.252 196.917 529.028 195.909 528.58C194.901 528.113 194.098 527.488 193.501 526.704C192.922 525.92 192.605 525.052 192.549 524.1H196.497C196.572 524.697 196.861 525.192 197.365 525.584C197.888 525.976 198.532 526.172 199.297 526.172C200.044 526.172 200.622 526.023 201.033 525.724C201.462 525.425 201.677 525.043 201.677 524.576C201.677 524.072 201.416 523.699 200.893 523.456C200.389 523.195 199.577 522.915 198.457 522.616C197.3 522.336 196.348 522.047 195.601 521.748C194.873 521.449 194.238 520.992 193.697 520.376C193.174 519.76 192.913 518.929 192.913 517.884C192.913 517.025 193.156 516.241 193.641 515.532C194.145 514.823 194.854 514.263 195.769 513.852C196.702 513.441 197.794 513.236 199.045 513.236C200.893 513.236 202.368 513.703 203.469 514.636C204.57 515.551 205.177 516.792 205.289 518.36H201.537C201.481 517.744 201.22 517.259 200.753 516.904C200.305 516.531 199.698 516.344 198.933 516.344C198.224 516.344 197.673 516.475 197.281 516.736C196.908 516.997 196.721 517.361 196.721 517.828C196.721 518.351 196.982 518.752 197.505 519.032C198.028 519.293 198.84 519.564 199.941 519.844C201.061 520.124 201.985 520.413 202.713 520.712C203.441 521.011 204.066 521.477 204.589 522.112C205.13 522.728 205.41 523.549 205.429 524.576C205.429 525.472 205.177 526.275 204.673 526.984C204.188 527.693 203.478 528.253 202.545 528.664C201.63 529.056 200.557 529.252 199.325 529.252ZM219.01 508.28V529H215.09V508.28H219.01ZM224.757 511.64C224.066 511.64 223.487 511.425 223.021 510.996C222.573 510.548 222.349 509.997 222.349 509.344C222.349 508.691 222.573 508.149 223.021 507.72C223.487 507.272 224.066 507.048 224.757 507.048C225.447 507.048 226.017 507.272 226.465 507.72C226.931 508.149 227.165 508.691 227.165 509.344C227.165 509.997 226.931 510.548 226.465 510.996C226.017 511.425 225.447 511.64 224.757 511.64ZM226.689 513.488V529H222.769V513.488H226.689ZM239.631 529L234.367 522.392V529H230.447V508.28H234.367V520.068L239.575 513.488H244.671L237.839 521.272L244.727 529H239.631ZM261.105 520.908C261.105 521.468 261.067 521.972 260.993 522.42H249.653C249.746 523.54 250.138 524.417 250.829 525.052C251.519 525.687 252.369 526.004 253.377 526.004C254.833 526.004 255.869 525.379 256.485 524.128H260.713C260.265 525.621 259.406 526.853 258.137 527.824C256.867 528.776 255.309 529.252 253.461 529.252C251.967 529.252 250.623 528.925 249.429 528.272C248.253 527.6 247.329 526.657 246.657 525.444C246.003 524.231 245.677 522.831 245.677 521.244C245.677 519.639 246.003 518.229 246.657 517.016C247.31 515.803 248.225 514.869 249.401 514.216C250.577 513.563 251.93 513.236 253.461 513.236C254.935 513.236 256.251 513.553 257.409 514.188C258.585 514.823 259.49 515.728 260.125 516.904C260.778 518.061 261.105 519.396 261.105 520.908ZM257.045 519.788C257.026 518.78 256.662 517.977 255.953 517.38C255.243 516.764 254.375 516.456 253.349 516.456C252.378 516.456 251.557 516.755 250.885 517.352C250.231 517.931 249.83 518.743 249.681 519.788H257.045ZM285.249 513.488L275.645 536.336H271.473L274.833 528.608L268.617 513.488H273.013L277.017 524.324L281.077 513.488H285.249ZM294.136 529.252C292.643 529.252 291.299 528.925 290.104 528.272C288.909 527.6 287.967 526.657 287.276 525.444C286.604 524.231 286.268 522.831 286.268 521.244C286.268 519.657 286.613 518.257 287.304 517.044C288.013 515.831 288.975 514.897 290.188 514.244C291.401 513.572 292.755 513.236 294.248 513.236C295.741 513.236 297.095 513.572 298.308 514.244C299.521 514.897 300.473 515.831 301.164 517.044C301.873 518.257 302.228 519.657 302.228 521.244C302.228 522.831 301.864 524.231 301.136 525.444C300.427 526.657 299.456 527.6 298.224 528.272C297.011 528.925 295.648 529.252 294.136 529.252ZM294.136 525.836C294.845 525.836 295.508 525.668 296.124 525.332C296.759 524.977 297.263 524.455 297.636 523.764C298.009 523.073 298.196 522.233 298.196 521.244C298.196 519.769 297.804 518.64 297.02 517.856C296.255 517.053 295.312 516.652 294.192 516.652C293.072 516.652 292.129 517.053 291.364 517.856C290.617 518.64 290.244 519.769 290.244 521.244C290.244 522.719 290.608 523.857 291.336 524.66C292.083 525.444 293.016 525.836 294.136 525.836ZM319.633 513.488V529H315.685V527.04C315.181 527.712 314.519 528.244 313.697 528.636C312.895 529.009 312.017 529.196 311.065 529.196C309.852 529.196 308.779 528.944 307.845 528.44C306.912 527.917 306.175 527.161 305.633 526.172C305.111 525.164 304.849 523.969 304.849 522.588V513.488H308.769V522.028C308.769 523.26 309.077 524.212 309.693 524.884C310.309 525.537 311.149 525.864 312.213 525.864C313.296 525.864 314.145 525.537 314.761 524.884C315.377 524.212 315.685 523.26 315.685 522.028V513.488H319.633ZM324.171 509.456H328.287L325.263 516.512H322.575L324.171 509.456ZM337.451 525.388L341.371 513.488H345.543L339.803 529H335.043L329.331 513.488H333.531L337.451 525.388ZM362.051 520.908C362.051 521.468 362.013 521.972 361.939 522.42H350.599C350.692 523.54 351.084 524.417 351.775 525.052C352.465 525.687 353.315 526.004 354.323 526.004C355.779 526.004 356.815 525.379 357.431 524.128H361.659C361.211 525.621 360.352 526.853 359.083 527.824C357.813 528.776 356.255 529.252 354.407 529.252C352.913 529.252 351.569 528.925 350.375 528.272C349.199 527.6 348.275 526.657 347.603 525.444C346.949 524.231 346.623 522.831 346.623 521.244C346.623 519.639 346.949 518.229 347.603 517.016C348.256 515.803 349.171 514.869 350.347 514.216C351.523 513.563 352.876 513.236 354.407 513.236C355.881 513.236 357.197 513.553 358.355 514.188C359.531 514.823 360.436 515.728 361.071 516.904C361.724 518.061 362.051 519.396 362.051 520.908ZM357.991 519.788C357.972 518.78 357.608 517.977 356.899 517.38C356.189 516.764 355.321 516.456 354.295 516.456C353.324 516.456 352.503 516.755 351.831 517.352C351.177 517.931 350.776 518.743 350.627 519.788H357.991ZM377.431 513.236C378.589 513.236 379.606 513.469 380.483 513.936C381.361 514.384 382.051 514.972 382.555 515.7V513.488H386.503V529.112C386.503 530.549 386.214 531.828 385.635 532.948C385.057 534.087 384.189 534.983 383.031 535.636C381.874 536.308 380.474 536.644 378.831 536.644C376.629 536.644 374.818 536.131 373.399 535.104C371.999 534.077 371.206 532.677 371.019 530.904H374.911C375.117 531.613 375.555 532.173 376.227 532.584C376.918 533.013 377.749 533.228 378.719 533.228C379.858 533.228 380.782 532.883 381.491 532.192C382.201 531.52 382.555 530.493 382.555 529.112V526.704C382.051 527.432 381.351 528.039 380.455 528.524C379.578 529.009 378.57 529.252 377.431 529.252C376.125 529.252 374.93 528.916 373.847 528.244C372.765 527.572 371.906 526.629 371.271 525.416C370.655 524.184 370.347 522.775 370.347 521.188C370.347 519.62 370.655 518.229 371.271 517.016C371.906 515.803 372.755 514.869 373.819 514.216C374.902 513.563 376.106 513.236 377.431 513.236ZM382.555 521.244C382.555 520.292 382.369 519.48 381.995 518.808C381.622 518.117 381.118 517.595 380.483 517.24C379.849 516.867 379.167 516.68 378.439 516.68C377.711 516.68 377.039 516.857 376.423 517.212C375.807 517.567 375.303 518.089 374.911 518.78C374.538 519.452 374.351 520.255 374.351 521.188C374.351 522.121 374.538 522.943 374.911 523.652C375.303 524.343 375.807 524.875 376.423 525.248C377.058 525.621 377.73 525.808 378.439 525.808C379.167 525.808 379.849 525.631 380.483 525.276C381.118 524.903 381.622 524.38 381.995 523.708C382.369 523.017 382.555 522.196 382.555 521.244ZM397.106 529.252C395.612 529.252 394.268 528.925 393.074 528.272C391.879 527.6 390.936 526.657 390.246 525.444C389.574 524.231 389.238 522.831 389.238 521.244C389.238 519.657 389.583 518.257 390.274 517.044C390.983 515.831 391.944 514.897 393.158 514.244C394.371 513.572 395.724 513.236 397.218 513.236C398.711 513.236 400.064 513.572 401.278 514.244C402.491 514.897 403.443 515.831 404.134 517.044C404.843 518.257 405.198 519.657 405.198 521.244C405.198 522.831 404.834 524.231 404.106 525.444C403.396 526.657 402.426 527.6 401.194 528.272C399.98 528.925 398.618 529.252 397.106 529.252ZM397.106 525.836C397.815 525.836 398.478 525.668 399.094 525.332C399.728 524.977 400.232 524.455 400.606 523.764C400.979 523.073 401.166 522.233 401.166 521.244C401.166 519.769 400.774 518.64 399.99 517.856C399.224 517.053 398.282 516.652 397.162 516.652C396.042 516.652 395.099 517.053 394.334 517.856C393.587 518.64 393.214 519.769 393.214 521.244C393.214 522.719 393.578 523.857 394.306 524.66C395.052 525.444 395.986 525.836 397.106 525.836ZM412.523 516.708V524.212C412.523 524.735 412.644 525.117 412.887 525.36C413.148 525.584 413.577 525.696 414.175 525.696H415.995V529H413.531C410.227 529 408.575 527.395 408.575 524.184V516.708H406.727V513.488H408.575V509.652H412.523V513.488H415.995V516.708H412.523ZM429.178 508.28V529H425.258V508.28H429.178ZM439.824 529.252C438.331 529.252 436.987 528.925 435.792 528.272C434.598 527.6 433.655 526.657 432.964 525.444C432.292 524.231 431.956 522.831 431.956 521.244C431.956 519.657 432.302 518.257 432.992 517.044C433.702 515.831 434.663 514.897 435.876 514.244C437.09 513.572 438.443 513.236 439.936 513.236C441.43 513.236 442.783 513.572 443.996 514.244C445.21 514.897 446.162 515.831 446.852 517.044C447.562 518.257 447.916 519.657 447.916 521.244C447.916 522.831 447.552 524.231 446.824 525.444C446.115 526.657 445.144 527.6 443.912 528.272C442.699 528.925 441.336 529.252 439.824 529.252ZM439.824 525.836C440.534 525.836 441.196 525.668 441.812 525.332C442.447 524.977 442.951 524.455 443.324 523.764C443.698 523.073 443.884 522.233 443.884 521.244C443.884 519.769 443.492 518.64 442.708 517.856C441.943 517.053 441 516.652 439.88 516.652C438.76 516.652 437.818 517.053 437.052 517.856C436.306 518.64 435.932 519.769 435.932 521.244C435.932 522.719 436.296 523.857 437.024 524.66C437.771 525.444 438.704 525.836 439.824 525.836ZM456.613 529.252C455.344 529.252 454.205 529.028 453.197 528.58C452.189 528.113 451.387 527.488 450.789 526.704C450.211 525.92 449.893 525.052 449.837 524.1H453.785C453.86 524.697 454.149 525.192 454.653 525.584C455.176 525.976 455.82 526.172 456.585 526.172C457.332 526.172 457.911 526.023 458.321 525.724C458.751 525.425 458.965 525.043 458.965 524.576C458.965 524.072 458.704 523.699 458.181 523.456C457.677 523.195 456.865 522.915 455.745 522.616C454.588 522.336 453.636 522.047 452.889 521.748C452.161 521.449 451.527 520.992 450.985 520.376C450.463 519.76 450.201 518.929 450.201 517.884C450.201 517.025 450.444 516.241 450.929 515.532C451.433 514.823 452.143 514.263 453.057 513.852C453.991 513.441 455.083 513.236 456.333 513.236C458.181 513.236 459.656 513.703 460.757 514.636C461.859 515.551 462.465 516.792 462.577 518.36H458.825C458.769 517.744 458.508 517.259 458.041 516.904C457.593 516.531 456.987 516.344 456.221 516.344C455.512 516.344 454.961 516.475 454.569 516.736C454.196 516.997 454.009 517.361 454.009 517.828C454.009 518.351 454.271 518.752 454.793 519.032C455.316 519.293 456.128 519.564 457.229 519.844C458.349 520.124 459.273 520.413 460.001 520.712C460.729 521.011 461.355 521.477 461.877 522.112C462.419 522.728 462.699 523.549 462.717 524.576C462.717 525.472 462.465 526.275 461.961 526.984C461.476 527.693 460.767 528.253 459.833 528.664C458.919 529.056 457.845 529.252 456.613 529.252ZM470.385 516.708V524.212C470.385 524.735 470.506 525.117 470.749 525.36C471.01 525.584 471.44 525.696 472.037 525.696H473.857V529H471.393C468.089 529 466.437 527.395 466.437 524.184V516.708H464.589V513.488H466.437V509.652H470.385V513.488H473.857V516.708H470.385ZM484.43 529.196C483.721 529.196 483.133 528.981 482.666 528.552C482.218 528.104 481.994 527.553 481.994 526.9C481.994 526.247 482.218 525.705 482.666 525.276C483.133 524.828 483.721 524.604 484.43 524.604C485.121 524.604 485.69 524.828 486.138 525.276C486.586 525.705 486.81 526.247 486.81 526.9C486.81 527.553 486.586 528.104 486.138 528.552C485.69 528.981 485.121 529.196 484.43 529.196ZM490.59 529.196C489.881 529.196 489.293 528.981 488.826 528.552C488.378 528.104 488.154 527.553 488.154 526.9C488.154 526.247 488.378 525.705 488.826 525.276C489.293 524.828 489.881 524.604 490.59 524.604C491.281 524.604 491.85 524.828 492.298 525.276C492.746 525.705 492.97 526.247 492.97 526.9C492.97 527.553 492.746 528.104 492.298 528.552C491.85 528.981 491.281 529.196 490.59 529.196ZM478.298 529.196C477.589 529.196 477.001 528.981 476.534 528.552C476.086 528.104 475.862 527.553 475.862 526.9C475.862 526.247 476.086 525.705 476.534 525.276C477.001 524.828 477.589 524.604 478.298 524.604C478.989 524.604 479.558 524.828 480.006 525.276C480.454 525.705 480.678 526.247 480.678 526.9C480.678 527.553 480.454 528.104 480.006 528.552C479.558 528.981 478.989 529.196 478.298 529.196ZM497.653 529.196C496.943 529.196 496.355 528.981 495.889 528.552C495.441 528.104 495.217 527.553 495.217 526.9C495.217 526.247 495.441 525.705 495.889 525.276C496.355 524.828 496.943 524.604 497.653 524.604C498.343 524.604 498.913 524.828 499.361 525.276C499.809 525.705 500.033 526.247 500.033 526.9C500.033 527.553 499.809 528.104 499.361 528.552C498.913 528.981 498.343 529.196 497.653 529.196Z" fill="#202224"/>
<path d="M496.598 102.109H133.402C126.001 102.109 120 108.111 120 115.515V385.629C120 393.033 126.001 399.034 133.402 399.034H496.597C503.999 399.034 509.999 393.032 509.999 385.629V115.515C510 108.111 503.999 102.109 496.598 102.109Z" fill="#05976A"/>
<path d="M236.763 300.75C235.956 300.823 235.076 300.787 234.123 300.64C233.169 300.567 232.399 300.237 231.813 299.65C231.373 299.283 230.639 298.66 229.613 297.78C228.659 296.9 227.743 295.873 226.863 294.7C225.983 293.527 225.506 292.353 225.433 291.18C225.359 290.227 225.469 289.42 225.763 288.76C226.056 288.027 226.569 287.22 227.303 286.34C227.816 285.753 228.586 284.983 229.613 284.03C230.713 283.077 231.813 282.123 232.913 281.17C234.013 280.143 234.783 279.373 235.223 278.86C235.956 278.127 236.433 277.467 236.653 276.88C236.946 276.22 237.019 275.377 236.873 274.35C236.799 273.25 236.249 272.37 235.223 271.71C234.196 270.977 233.133 270.427 232.033 270.06C230.713 269.547 229.173 268.997 227.413 268.41C225.726 267.823 224.113 267.273 222.573 266.76C221.106 266.173 219.933 265.697 219.053 265.33C217.879 264.67 216.706 263.717 215.533 262.47C214.359 261.15 213.479 259.793 212.893 258.4C212.379 257.007 211.903 255.1 211.463 252.68C211.096 250.187 210.839 247.693 210.693 245.2C210.619 243.953 210.583 242.377 210.583 240.47C210.656 238.563 210.729 236.583 210.803 234.53C210.949 232.477 211.096 230.57 211.243 228.81C211.389 227.05 211.536 225.693 211.683 224.74C211.903 223.493 212.196 222.1 212.563 220.56C212.929 218.947 213.516 217.443 214.323 216.05C215.129 214.657 216.229 213.593 217.623 212.86C218.869 212.273 220.299 211.87 221.913 211.65C223.526 211.357 224.919 211.393 226.093 211.76C227.266 212.127 228.549 212.787 229.943 213.74C231.409 214.693 233.426 215.353 235.993 215.72C237.019 215.867 238.523 216.087 240.503 216.38C242.556 216.6 244.756 216.893 247.103 217.26C249.523 217.553 251.833 217.847 254.033 218.14C256.306 218.36 258.249 218.58 259.863 218.8C261.549 219.02 262.649 219.167 263.163 219.24C265.876 219.533 268.039 220.267 269.653 221.44C271.339 222.613 272.586 223.86 273.393 225.18C274.199 226.427 274.639 227.417 274.713 228.15C275.006 231.01 274.786 233.1 274.053 234.42C273.319 235.667 272.403 236.473 271.303 236.84C270.276 237.133 269.433 237.353 268.773 237.5C267.233 237.793 265.253 237.903 262.833 237.83C260.486 237.683 258.103 237.463 255.683 237.17C253.336 236.877 251.393 236.657 249.853 236.51C248.313 236.29 246.369 236.07 244.023 235.85C241.749 235.557 239.623 235.41 237.643 235.41C235.663 235.41 234.306 235.777 233.573 236.51C232.399 237.537 231.593 239.077 231.153 241.13C230.786 243.11 231.299 244.87 232.693 246.41C234.086 247.95 235.956 249.49 238.303 251.03C240.723 252.497 243.069 253.853 245.343 255.1C247.469 256.2 249.633 257.52 251.833 259.06C254.033 260.527 255.903 262.103 257.443 263.79C259.056 265.477 259.936 267.09 260.083 268.63C260.376 271.123 260.339 273.213 259.973 274.9C259.606 276.587 258.946 278.237 257.993 279.85C257.113 281.39 255.976 283.187 254.583 285.24C253.556 286.78 252.199 288.43 250.513 290.19C248.899 291.95 247.176 293.6 245.343 295.14C243.583 296.68 241.933 297.963 240.393 298.99C238.853 300.017 237.643 300.603 236.763 300.75ZM316.888 296.79C313.222 296.863 309.518 296.387 305.778 295.36C302.038 294.333 299.105 293.013 296.978 291.4C294.925 289.86 292.725 287.623 290.378 284.69C288.032 281.757 286.272 277.833 285.098 272.92C283.852 267.567 283.338 262.58 283.558 257.96C283.852 253.267 284.548 249.087 285.648 245.42C286.748 241.68 287.958 238.563 289.278 236.07C291.185 232.33 293.788 228.663 297.088 225.07C300.462 221.477 304.898 218.8 310.398 217.04C313.918 215.867 317.402 215.427 320.848 215.72C324.368 216.013 327.448 216.673 330.088 217.7C332.802 218.727 334.672 219.753 335.698 220.78C339.145 223.86 341.712 227.637 343.398 232.11C345.158 236.583 346.185 241.423 346.478 246.63C346.772 251.837 346.405 257.153 345.378 262.58C343.765 271.087 341.052 278.09 337.238 283.59C333.425 289.017 329.098 292.72 324.258 294.7C322.205 295.58 320.775 296.13 319.968 296.35C319.162 296.497 318.135 296.643 316.888 296.79ZM312.048 274.9C315.275 275.193 317.915 274.57 319.968 273.03C322.022 271.417 323.672 269.143 324.918 266.21C326.165 263.203 327.192 259.867 327.998 256.2C328.805 252.46 328.952 248.94 328.438 245.64C327.925 242.34 326.678 239.663 324.698 237.61C322.792 235.483 320.078 234.42 316.558 234.42C313.112 234.493 310.362 235.96 308.308 238.82C306.255 241.68 304.788 246.08 303.908 252.02C303.615 254.22 303.432 256.603 303.358 259.17C303.358 261.663 303.615 264.083 304.128 266.43C304.642 268.777 305.522 270.72 306.768 272.26C308.088 273.8 309.848 274.68 312.048 274.9ZM388.682 296.79C385.015 296.863 381.312 296.387 377.572 295.36C373.832 294.333 370.899 293.013 368.772 291.4C366.719 289.86 364.519 287.623 362.172 284.69C359.825 281.757 358.065 277.833 356.892 272.92C355.645 267.567 355.132 262.58 355.352 257.96C355.645 253.267 356.342 249.087 357.442 245.42C358.542 241.68 359.752 238.563 361.072 236.07C362.979 232.33 365.582 228.663 368.882 225.07C372.255 221.477 376.692 218.8 382.192 217.04C385.712 215.867 389.195 215.427 392.642 215.72C396.162 216.013 399.242 216.673 401.882 217.7C404.595 218.727 406.465 219.753 407.492 220.78C410.939 223.86 413.505 227.637 415.192 232.11C416.952 236.583 417.979 241.423 418.272 246.63C418.565 251.837 418.199 257.153 417.172 262.58C415.559 271.087 412.845 278.09 409.032 283.59C405.219 289.017 400.892 292.72 396.052 294.7C393.999 295.58 392.569 296.13 391.762 296.35C390.955 296.497 389.929 296.643 388.682 296.79ZM383.842 274.9C387.069 275.193 389.709 274.57 391.762 273.03C393.815 271.417 395.465 269.143 396.712 266.21C397.959 263.203 398.985 259.867 399.792 256.2C400.599 252.46 400.745 248.94 400.232 245.64C399.719 242.34 398.472 239.663 396.492 237.61C394.585 235.483 391.872 234.42 388.352 234.42C384.905 234.493 382.155 235.96 380.102 238.82C378.049 241.68 376.582 246.08 375.702 252.02C375.409 254.22 375.225 256.603 375.152 259.17C375.152 261.663 375.409 264.083 375.922 266.43C376.435 268.777 377.315 270.72 378.562 272.26C379.882 273.8 381.642 274.68 383.842 274.9Z" fill="#FD9E28"/>
<path d="M510 385.626V115.518C510 108.108 503.997 102.111 496.597 102.111H475.017C482.417 102.111 488.421 108.108 488.421 115.518V385.625C488.421 393.035 482.417 399.032 475.017 399.032H496.597C503.997 399.032 510 393.036 510 385.626Z" fill="#007853"/>
<path d="M510 160.163V115.518C510 108.108 503.997 102.111 496.597 102.111H133.403C126.003 102.112 120 108.109 120 115.518V160.163H510Z" fill="#E4FFF1"/>
<path d="M510 160.163V115.518C510 108.108 503.997 102.111 496.597 102.111H475.017C482.417 102.111 488.421 108.108 488.421 115.518V160.163H510Z" fill="#C8FFE2"/>
<path d="M195.416 136.968H195.342C192.091 136.968 189.457 134.333 189.457 131.082C189.457 127.831 192.091 125.195 195.342 125.195C198.592 125.195 201.264 127.831 201.264 131.082C201.264 134.333 198.666 136.968 195.416 136.968Z" fill="#54DDAC"/>
<path d="M176.133 137.024C172.911 137.024 170.283 134.429 170.249 131.199C170.215 127.948 172.822 125.285 176.072 125.251C179.288 125.207 182.021 127.824 182.056 131.075C182.09 134.327 179.519 136.989 176.269 137.023L176.195 137.024C176.175 137.024 176.153 137.024 176.133 137.024Z" fill="#FDC142"/>
<path d="M156.924 137.08C153.702 137.08 151.074 134.485 151.041 131.255C151.007 128.003 153.615 125.34 156.865 125.307C156.886 125.307 156.907 125.307 156.927 125.307C160.149 125.307 162.814 127.902 162.847 131.132C162.881 134.383 160.311 137.046 157.06 137.08L156.986 137.08C156.966 137.08 156.945 137.08 156.924 137.08Z" fill="#FC3E81"/>
<path d="M251.659 137.08H231.235C227.985 137.08 225.35 134.444 225.35 131.193C225.35 127.942 227.985 125.307 231.235 125.307H251.659C254.909 125.307 257.544 127.942 257.544 131.193C257.544 134.444 254.909 137.08 251.659 137.08Z" fill="#C8FFE2"/>
<path d="M403.273 374.58C400.01 374.58 397.328 371.935 397.328 368.672C397.328 365.408 399.935 362.764 403.198 362.764H403.273C406.536 362.764 409.181 365.409 409.181 368.672C409.181 371.935 406.536 374.58 403.273 374.58Z" fill="#C8FFE2"/>
<path d="M422.841 374.637C419.578 374.637 416.894 371.991 416.894 368.728C416.894 365.465 419.502 362.82 422.766 362.82H422.841C426.104 362.82 428.749 365.465 428.749 368.728C428.749 371.991 426.104 374.637 422.841 374.637Z" fill="#C8FFE2"/>
<path d="M442.409 374.695C442.389 374.695 442.368 374.695 442.347 374.695C439.084 374.661 436.429 371.988 436.462 368.725C436.496 365.483 439.097 362.877 442.332 362.877C442.353 362.877 442.373 362.877 442.394 362.877L442.469 362.878C445.732 362.911 448.35 365.583 448.316 368.847C448.283 372.089 445.643 374.695 442.409 374.695Z" fill="#C8FFE2"/>
<path d="M189.837 350.314H170.27C167.007 350.314 164.362 347.692 164.362 344.458C164.362 341.224 167.007 338.602 170.27 338.602H189.837C193.1 338.602 195.745 341.224 195.745 344.458C195.745 347.692 193.1 350.314 189.837 350.314Z" fill="#E3F4FF"/>
<path d="M209.404 374.639H170.27C167.007 374.639 164.362 372.017 164.362 368.782C164.362 365.548 167.007 362.926 170.27 362.926H209.404C212.667 362.926 215.313 365.548 215.313 368.782C215.313 372.017 212.667 374.639 209.404 374.639Z" fill="#E3F4FF"/>
</svg>
